<svg id="Messages_Challenges_Icon" data-name="Messages/Challenges Icon" xmlns="http://www.w3.org/2000/svg" width="24.149" height="24.148" viewBox="0 0 24.149 24.148">
  <path id="Path_1" data-name="Path 1" d="M29.809,18.563c0,.133,0,.264-.006.4a12.055,12.055,0,0,1-4.563,9.064q-.408.324-.844.613a12.019,12.019,0,0,1-6.661,2,12.2,12.2,0,0,1-1.691-.118c-.311-.043-.62-.1-.925-.166a12.08,12.08,0,0,1-7.206-4.766q-.233-.325-.445-.665a12,12,0,0,1-1.8-5.963c0-.132-.006-.263-.006-.4s0-.264.006-.4a12,12,0,0,1,1.812-5.979c.029-.049.059-.095.089-.142q.171-.266.355-.522c.033-.047.067-.094.1-.14a12.071,12.071,0,0,1,7.64-4.719q.477-.083.965-.127.544-.049,1.1-.049a12.015,12.015,0,0,1,6.648,1.992q.309.2.6.425c.082.061.163.124.243.188.154.121.3.247.452.376a12.045,12.045,0,0,1,4.124,8.7C29.807,18.3,29.809,18.431,29.809,18.563Z" transform="translate(-5.66 -6.49)" fill="#ff8336"/>
  <path id="Path_2" data-name="Path 2" d="M29.809,242.876c0,.133,0,.264-.006.4H5.666c0-.132-.006-.263-.006-.4s0-.264.006-.4H29.8C29.807,242.612,29.809,242.743,29.809,242.876Z" transform="translate(-5.66 -230.802)" fill="#030e13"/>
  <path id="Path_3" data-name="Path 3" d="M142.976,30.328q.235.594.467,1.142-.47-.065-.927-.167-.139-.332-.276-.682a42.172,42.172,0,0,1-1.979-6.348q-.086-.39-.16-.784a22.15,22.15,0,0,1-.406-3.579c0-.133,0-.264,0-.4s0-.259,0-.4a19.977,19.977,0,0,1,.436-3.58q.079-.381.178-.783a30.339,30.339,0,0,1,1.941-5.476c.277-.6.552-1.158.814-1.662q.477-.083.966-.127c-.337.619-.7,1.339-1.068,2.134a30.246,30.246,0,0,0-1.836,5.122q-.1.4-.189.8a19.147,19.147,0,0,0-.45,3.569c0,.132-.005.264-.005.4s0,.258.005.4a21.689,21.689,0,0,0,.419,3.575q.077.393.171.815A40.521,40.521,0,0,0,142.976,30.328Z" transform="translate(-133.058 -7.44)" fill="#030e13"/>
  <path id="Path_4" data-name="Path 4" d="M59.97,335.981q-.408.324-.844.613a15.459,15.459,0,0,1-2.216-.753,31.564,31.564,0,0,1-5.248-2.929,8.324,8.324,0,0,0-3.253-1.606,3.541,3.541,0,0,0-.495-.035q-.16,0-.32.008a7.68,7.68,0,0,0-4.387,1.791q-.283.224-.563.474-.233-.324-.445-.665.253-.223.509-.425a8.51,8.51,0,0,1,4.726-1.959q.239-.016.48-.016.165,0,.326.012a8.2,8.2,0,0,1,3.86,1.76,30.866,30.866,0,0,0,5.126,2.863A15.494,15.494,0,0,0,59.97,335.981Z" transform="translate(-40.392 -314.447)" fill="#030e13"/>
  <path id="Path_5" data-name="Path 5" d="M60.158,47.353a15.358,15.358,0,0,0-2.74.861,30.932,30.932,0,0,0-5.13,2.856,8.2,8.2,0,0,1-3.863,1.755q-.16.012-.326.012-.241,0-.48-.017A8.5,8.5,0,0,1,42.9,50.855q-.247-.2-.488-.408c.029-.049.059-.095.089-.142q.171-.266.355-.522.269.24.541.456a7.679,7.679,0,0,0,4.384,1.8c.106.005.213.008.32.008a3.624,3.624,0,0,0,.495-.034,8.327,8.327,0,0,0,3.255-1.6A31.565,31.565,0,0,1,57.1,47.487a15.473,15.473,0,0,1,2.211-.747q.309.2.6.425C60,47.226,60.077,47.289,60.158,47.353Z" transform="translate(-40.591 -44.748)" fill="#030e13"/>
  <path id="Path_6" data-name="Path 6" d="M342.6,411.73" transform="translate(-325.927 -391.677)" fill="rgba(0,0,0,0)" stroke="#3d332a" stroke-miterlimit="10" stroke-width="16"/>
  <path id="Path_7" data-name="Path 7" d="M342.66,411.48" transform="translate(-325.984 -391.439)" fill="rgba(0,0,0,0)" stroke="#3d332a" stroke-miterlimit="10" stroke-width="16"/>
  <path id="Path_8" data-name="Path 8" d="M342.66,411.48" transform="translate(-325.984 -391.439)" fill="rgba(0,0,0,0)" stroke="#3d332a" stroke-miterlimit="10" stroke-width="16"/>
</svg>
